# xmcd
#
# Track frame offsets: 
#        150
#        11325
#        29775
#        40312
#        52612
#        73275
#        87487
#        102000
#        121050
#        140887
#
# Disc length: 2181 seconds
#
# Revision: 0
# Processed by: cddbd v1.5PL3 Copyright (c) Steve Scherf et al.
# Submitted via: ExactAudioCopy v0.95a5
#
DISCID=8608830a
DTITLE=The Sounders - Happy With The Truth
DYEAR=1998
DGENRE=Rock
TTITLE0=On a Lucky Day
TTITLE1=Burning
TTITLE2=The Sweet Smell of Success
TTITLE3=Saving Grace
TTITLE4=Heaven No More
TTITLE5=Happy with the Truth
TTITLE6=You and New Year's Eve
TTITLE7=Searchlight
TTITLE8=When the Rivers Run High
TTITLE9=Red River
EXTD=
EXTT0=
EXTT1=
EXTT2=
EXTT3=
EXTT4=
EXTT5=
EXTT6=
EXTT7=
EXTT8=
EXTT9=
PLAYORDER=
